HIERARCHY
ROOT Hips
{
	OFFSET 0.00000 0.00000 0.00000
	CHANNELS 6 Xposition Yposition Zposition Zrotation Yrotation Xrotation 
	JOINT LHipJoint
	{
		OFFSET 0 0 0
		CHANNELS 3 Zrotation Yrotation Xrotation
		JOINT LeftHip
		{
			OFFSET 1.37590 -1.78394 0.89329
			CHANNELS 3 Zrotation Yrotation Xrotation
			JOINT LeftKnee
			{
				OFFSET 2.47928 -6.81178 0.00000
				CHANNELS 3 Zrotation Yrotation Xrotation
				JOINT LeftAnkle
				{
					OFFSET 2.63345 -7.23535 0.00000
					CHANNELS 3 Zrotation Yrotation Xrotation
					JOINT LeftToe
					{
						OFFSET 0.23938 -0.65768 2.27012
						CHANNELS 3 Zrotation Yrotation Xrotation
						End Site
						{
							OFFSET 0.00000 -0.00000 1.18363
						}
					}
				}
			}
		}
	}
	JOINT RHipJoint
	{
		OFFSET 0 0 0
		CHANNELS 3 Zrotation Yrotation Xrotation
		JOINT RightHip
		{
			OFFSET -1.33617 -1.78394 0.89329
			CHANNELS 3 Zrotation Yrotation Xrotation
			JOINT RightKnee
			{
				OFFSET -2.56922 -7.05888 0.00000
				CHANNELS 3 Zrotation Yrotation Xrotation
				JOINT RightAnkle
				{
					OFFSET -2.56568 -7.04915 0.00000
					CHANNELS 3 Zrotation Yrotation Xrotation
					JOINT RightToe
					{
						OFFSET -0.27533 -0.75646 2.18105
						CHANNELS 3 Zrotation Yrotation Xrotation
						End Site
						{
							OFFSET -0.00000 -0.00000 1.15233
						}
					}
				}
			}
		}
	}
	JOINT lowerback
	{
		OFFSET 0 0 0
		CHANNELS 3 Zrotation Yrotation Xrotation
		JOINT Chest
		{
			OFFSET 0.06190 2.15152 -0.00935
			CHANNELS 3 Zrotation Yrotation Xrotation
			JOINT Chest2
			{
				OFFSET 0.06334 2.15332 0.00872
				CHANNELS 3 Zrotation Yrotation Xrotation
				JOINT lowerneck
				{
					OFFSET 0 0 0
					CHANNELS 3 Zrotation Yrotation Xrotation
					JOINT Neck
					{
						OFFSET -0.04202 1.66908 0.23524
						CHANNELS 3 Zrotation Yrotation Xrotation
						JOINT Head
						{
							OFFSET 0.07510 1.69357 -0.24440
							CHANNELS 3 Zrotation Yrotation Xrotation
							End Site
							{
								OFFSET 0.02556 1.71719 -0.11000
							}
						}
					}
				}
				JOINT LeftCollar
				{
					OFFSET 0 0 0
					CHANNELS 3 Zrotation Yrotation Xrotation
					JOINT LeftShoulder
					{
						OFFSET 3.67168 1.26306 -0.41342
CHANNELS 3 Zrotation Xrotation Yrotation
						JOINT LeftElbow
						{
OFFSET 0 -4.685100 -0.000000
CHANNELS 3 Zrotation Xrotation Yrotation
							JOINT LeftWrist
							{
OFFSET 0 -3.396260 -0.000000
CHANNELS 3 Zrotation Xrotation Yrotation
								JOINT lhand
								{
									OFFSET 0 0 0
CHANNELS 3 Zrotation Xrotation Yrotation
									JOINT LFingers
									{
OFFSET 0 -0.486080 -0.000000
CHANNELS 3 Zrotation Xrotation Yrotation
										End Site
										{
OFFSET 0 -0.391890 -0.000000
										}
									}
								}
								JOINT LThumb
								{
OFFSET 0 0.000000 0.000000
CHANNELS 3 Zrotation Xrotation Yrotation
									End Site
									{
OFFSET 0 -0.397870 0.397870
									}
								}
							}
						}
					}
				}
				JOINT RightCollar
				{
					OFFSET 0 0 0
					CHANNELS 3 Zrotation Yrotation Xrotation
					JOINT RightShoulder
					{
						OFFSET -3.04136 1.42992 -0.76390
CHANNELS 3 Zrotation Xrotation Yrotation
						JOINT RightElbow
						{
OFFSET 0 -5.555760 -0.000000
CHANNELS 3 Zrotation Xrotation Yrotation
							JOINT RightWrist
							{
OFFSET 0 -3.327740 -0.000000
CHANNELS 3 Zrotation Xrotation Yrotation
								JOINT rhand
								{
									OFFSET 0 0 0
CHANNELS 3 Zrotation Xrotation Yrotation
									JOINT RFingers
									{
OFFSET 0 -0.507630 -0.000000
CHANNELS 3 Zrotation Xrotation Yrotation
										End Site
										{
OFFSET 0 -0.409260 -0.000000
										}
									}
								}
								JOINT RThumb
								{
OFFSET 0 0.000000 0.000000
CHANNELS 3 Zrotation Xrotation Yrotation
									End Site
									{
OFFSET 0 -0.415510 0.415510
									}
								}
							}
						}
					}
				}
			}
		}
	}
}
MOTION
Frames: 9
Frame Time: 0.008333333333333333
45.532000 17.802500 4.950800 -56.850400 -81.370100 62.656500 0.000000 0.000000 0.000000 -10.795300 -8.101000 -6.695200 0.623000 5.051100 14.054400 0.339800 0.539100 -11.219500 0.944800 -6.190800 -17.339000 0.000000 0.000000 0.000000 29.159800 2.610400 -10.355200 -0.951900 -6.213200 17.404200 -0.130100 -10.249400 -16.496200 -0.713200 -5.397000 15.044300 2.705000 0.529500 -1.313300 3.862100 0.640800 -1.699900 2.452500 0.281300 -1.021900 -4.565600 -2.080600 -20.528300 2.847600 -2.148700 18.322600 1.433500 -1.020000 9.231200 0.000000 0.000000 0.000000 -3.674300 2.124500 20.529300 8.248900 -13.955600 1.011300 15.293800 59.910300 -23.645500 0.000000 0.000000 0.000000 -7.125000 0.000000 0.000000 -14.590200 53.799200 3.209200 0.000000 0.000000 0.000000 -4.327700 2.522300 2.023400 -11.647600 -19.274100 -1.984400 -14.811800 24.916300 24.471600 0.000000 0.000000 0.000000 7.125000 0.000000 -0.000000 15.478100 54.516600 -3.685500
45.525634 17.799329 4.946534 -57.064759 -81.377250 63.276664 0.000000 0.000000 0.000000 -10.676892 -8.230994 -7.146009 0.631330 5.084016 14.148277 0.361012 0.598651 -11.581125 0.917938 -6.104344 -17.087363 0.000000 0.000000 0.000000 29.196229 2.867324 -10.862049 -0.979992 -6.301586 17.662081 -0.139921 -10.241082 -16.618266 -0.715165 -5.404046 15.064775 2.675765 0.500162 -1.725074 3.879702 0.580502 -1.764088 2.489900 0.251111 -0.855900 -4.695174 -2.040061 -20.704418 3.093230 -2.106348 18.545115 1.546419 -0.981661 9.342551 0.000000 0.000000 0.000000 -3.688935 1.872332 18.857696 8.311836 -14.057106 1.026510 15.050137 58.277682 -23.266347 0.000000 0.000000 0.000000 -7.125000 0.000000 0.000000 -14.653583 53.382727 3.072929 0.000000 0.000000 0.000000 -4.283244 2.363190 2.504764 -11.817547 -19.530495 -2.040881 -14.730385 25.201992 24.555280 0.000000 0.000000 0.000000 7.125000 0.000000 0.000000 15.602378 54.582480 -3.741632
45.509347 17.791759 4.938759 -57.151252 -81.437204 63.677074 0.000000 0.000000 0.000000 -10.642794 -8.280801 -7.434294 0.633750 5.093580 14.175669 0.390324 0.536828 -12.008374 0.890368 -6.013909 -16.824890 0.000000 0.000000 0.000000 29.183370 3.037400 -11.221060 -1.001742 -6.369005 17.858876 -0.157003 -10.269343 -16.878607 -0.658151 -5.188904 14.448200 2.617800 0.522871 -2.026388 3.844765 0.599169 -1.864520 2.488821 0.260690 -0.790813 -4.731178 -2.052540 -20.619244 3.210465 -2.146636 18.596967 1.587879 -0.991221 9.348936 0.000000 0.000000 0.000000 -3.692331 1.572489 18.046984 8.315422 -14.062947 1.027458 15.119358 58.087706 -23.465392 0.000000 0.000000 0.000000 -7.125000 0.000000 0.000000 -14.678656 53.590442 3.153896 0.000000 0.000000 0.000000 -4.206978 2.299212 3.184874 -12.027803 -19.846279 -2.111731 -14.774333 24.615379 24.867544 0.000000 0.000000 0.000000 7.125000 0.000000 0.000000 15.719591 54.894597 -3.891568
45.490730 17.786089 4.929833 -57.010285 -81.466738 63.800123 0.000000 0.000000 0.000000 -10.609904 -8.340645 -7.644135 0.633075 5.090774 14.167626 0.413361 0.442620 -12.314347 0.826094 -5.798819 -16.201726 0.000000 0.000000 0.000000 29.178504 3.161514 -11.473648 -1.013204 -6.404231 17.961926 -0.173295 -10.284635 -17.108499 -0.663476 -5.209272 14.506307 2.547750 0.534910 -2.320776 3.814566 0.603021 -1.927122 2.499355 0.263246 -0.690524 -4.956687 -2.020568 -20.721335 3.738577 -2.162942 18.845973 1.813791 -0.954967 9.464951 0.000000 0.000000 0.000000 -3.697862 1.144398 17.655181 8.275218 -13.998030 1.017651 15.043739 58.123472 -23.118233 0.000000 0.000000 0.000000 -7.125000 0.000000 0.000000 -14.591526 53.236108 3.007061 0.000000 0.000000 0.000000 -4.132975 2.192697 3.807928 -12.221929 -20.136628 -2.178120 -14.663437 24.254859 24.954687 0.000000 0.000000 0.000000 7.125000 0.000000 0.000000 15.879176 54.957376 -3.959175
45.468089 17.781720 4.918494 -56.862138 -81.521130 63.858054 0.000000 0.000000 0.000000 -10.607701 -8.376689 -7.751573 0.630558 5.081132 14.140056 0.418325 0.595462 -12.447891 0.838517 -5.841290 -16.324492 0.000000 0.000000 0.000000 29.166675 3.277156 -11.635944 -1.024980 -6.440259 18.067378 -0.191905 -10.303641 -17.369131 -0.670248 -5.235310 14.580865 2.417787 0.556740 -2.567866 3.784403 0.624371 -1.984518 2.543504 0.275267 -0.612561 -6.541132 -1.809284 -21.758609 6.578618 -2.059156 20.338791 3.117651 -0.692694 10.225170 0.000000 0.000000 0.000000 -3.695454 0.798319 16.746005 8.275784 -13.998934 1.017836 14.989020 57.841498 -23.371456 0.000000 0.000000 0.000000 -7.125000 0.000000 0.000000 -14.764747 53.474441 3.131489 0.000000 0.000000 0.000000 -4.060991 2.132238 4.305466 -12.365778 -20.350756 -2.228007 -14.843671 23.970220 24.238928 0.000000 0.000000 0.000000 7.125000 0.000000 0.000000 15.330114 54.295573 -3.566671
45.439996 17.780146 4.903950 -56.256410 -81.527474 63.381836 0.000000 0.000000 0.000000 -10.603940 -8.455414 -7.709616 0.623547 5.053111 14.060211 0.432579 0.627421 -12.666805 0.823686 -5.790478 -16.177665 0.000000 0.000000 0.000000 29.188977 3.425198 -11.627860 -1.029583 -6.454326 18.108450 -0.207658 -10.392406 -17.672533 -0.676204 -5.257469 14.644619 2.262757 0.529861 -2.788429 3.777878 0.581919 -2.014181 2.624911 0.255846 -0.519875 -6.388647 -1.718046 -21.619147 6.599443 -1.999427 20.342662 3.107794 -0.653738 10.195039 0.000000 0.000000 0.000000 -3.738114 0.370726 16.262634 8.239078 -13.939706 1.008901 14.973850 57.814614 -22.831398 0.000000 0.000000 0.000000 -7.125000 0.000000 0.000000 -14.528508 52.942067 2.887661 0.000000 0.000000 0.000000 -4.025450 2.114653 5.063880 -12.600954 -20.699592 -2.310403 -14.801850 23.535865 24.644421 0.000000 0.000000 0.000000 7.125000 0.000000 0.000000 15.576821 54.682749 -3.774351
45.426370 17.770696 4.900765 -56.943585 -81.634452 64.430673 0.000000 0.000000 0.000000 -10.590969 -8.522221 -8.029006 0.624251 5.055705 14.067549 0.448504 0.699975 -12.921835 0.783263 -5.649294 -15.770365 0.000000 0.000000 0.000000 29.128609 3.501116 -12.093336 -1.048316 -6.511018 18.274431 -0.225808 -10.215877 -17.688317 -0.629755 -5.077402 14.129584 2.294796 0.595511 -3.066443 3.727242 0.658717 -2.139101 2.558717 0.292829 -0.493956 -6.512877 -1.842305 -21.512056 6.621630 -2.137560 20.229646 3.113172 -0.725495 10.146944 0.000000 0.000000 0.000000 -3.783133 -0.001526 15.541204 8.256419 -13.967600 1.013105 14.917350 57.675566 -23.012864 0.000000 0.000000 0.000000 -7.125000 0.000000 0.000000 -14.667379 53.110109 2.977201 0.000000 0.000000 0.000000 -3.967239 2.064032 5.826782 -12.840662 -21.052858 -2.396008 -14.986564 23.188314 24.465232 0.000000 0.000000 0.000000 7.125000 0.000000 0.000000 15.300078 54.543416 -3.652172
45.404457 17.763521 4.890929 -56.848323 -81.687950 64.635964 0.000000 0.000000 0.000000 -10.566503 -8.615766 -8.339706 0.635713 5.101131 14.197151 0.467810 0.703707 -13.193727 0.755516 -5.551134 -15.487554 0.000000 0.000000 0.000000 29.101052 3.623353 -12.390005 -1.061058 -6.549103 18.386202 -0.242330 -10.197726 -17.868928 -0.603125 -4.971018 13.826039 2.239024 0.601081 -3.375674 3.692769 0.654801 -2.224403 2.557255 0.290800 -0.408734 -6.309429 -1.756604 -21.369401 6.486290 -2.061589 20.228386 3.040797 -0.693435 10.110812 0.000000 0.000000 0.000000 -3.835156 -0.365513 14.682258 8.289101 -14.020438 1.021048 14.923552 57.433199 -23.262269 0.000000 0.000000 0.000000 -7.125000 0.000000 0.000000 -14.777336 53.355745 3.090127 0.000000 0.000000 0.000000 -3.919315 2.016412 6.749025 -13.186780 -21.559817 -2.521814 -14.770087 22.543028 25.127717 0.000000 0.000000 0.000000 7.125000 0.000000 0.000000 15.867846 55.144953 -4.033827
45.380524 17.754412 4.881495 -57.167156 -81.731504 65.296216 0.000000 0.000000 0.000000 -10.479370 -8.650374 -8.582866 0.629443 5.076453 14.126658 0.473769 0.790747 -13.312076 0.764364 -5.583024 -15.579300 0.000000 0.000000 0.000000 29.118740 3.776200 -12.729419 -1.075390 -6.591729 18.511465 -0.263156 -10.170413 -18.088919 -0.588856 -4.913062 13.660828 2.239284 0.617596 -3.737728 3.663480 0.661148 -2.322475 2.530612 0.292883 -0.306986 -6.144635 -1.603347 -21.319092 6.479897 -1.917132 20.426573 3.035827 -0.617735 10.159935 0.000000 0.000000 0.000000 -3.873544 -0.710168 13.756900 8.333914 -14.092667 1.031953 14.893444 57.006404 -23.354187 0.000000 0.000000 0.000000 -7.125000 0.000000 0.000000 -14.850135 53.440424 3.136666 0.000000 0.000000 0.000000 -3.876063 1.951282 7.692490 -13.521507 -22.046270 -2.646050 -14.734907 22.032537 25.940529 0.000000 0.000000 0.000000 7.125000 0.000000 0.000000 16.339252 55.926894 -4.464837
